<svg width="240" height="240" viewBox="0 0 240 240" fill="none" xmlns="http://www.w3.org/2000/svg">
<g clip-path="url(#clip0)">
<path d="M206.25 172.5H202.5C212.025 145.556 185.625 120 159.375 129.375C153.444 116.186 143.206 105.406 130.34 98.8038C117.475 92.2014 102.747 90.1692 88.574 93.0408C74.4012 95.9124 61.6259 103.517 52.3451 114.607C43.0643 125.696 37.8295 139.612 37.5 154.069C26.5608 155.402 16.5471 160.873 9.51476 169.358C2.48243 177.842 -1.03488 188.697 -0.315047 199.694C0.404785 210.69 5.30714 220.994 13.3855 228.49C21.4639 235.986 32.1053 240.104 43.125 240H206.25C215.201 240 223.785 236.444 230.115 230.115C236.444 223.786 240 215.201 240 206.25C240 197.299 236.444 188.715 230.115 182.385C223.785 176.056 215.201 172.5 206.25 172.5ZM206.25 236.25H43.125C33.0372 236.182 23.3603 232.244 16.0908 225.25C8.8213 218.255 4.51372 208.737 4.05674 198.66C3.59976 188.582 7.02823 178.713 13.6349 171.089C20.2415 163.466 29.5222 158.668 39.5625 157.688C40.0406 157.595 40.4713 157.339 40.7796 156.962C41.088 156.585 41.2544 156.112 41.25 155.625C41.3015 141.79 46.1328 128.397 54.9259 117.715C63.7189 107.034 75.9334 99.7189 89.501 97.0098C103.069 94.3006 117.156 96.3637 129.377 102.849C141.598 109.335 151.202 119.845 156.562 132.6C156.655 132.837 156.794 133.052 156.972 133.233C157.15 133.415 157.363 133.558 157.598 133.654C157.833 133.751 158.085 133.798 158.339 133.794C158.593 133.79 158.843 133.735 159.075 133.631C183.356 123.3 209.194 148.294 197.85 173.606C197.705 173.903 197.641 174.232 197.664 174.561C197.687 174.891 197.796 175.208 197.981 175.481C198.75 176.663 199.331 176.363 206.194 176.363C214.15 176.363 221.781 179.523 227.407 185.149C233.033 190.775 236.194 198.406 236.194 206.363C236.194 214.319 233.033 221.95 227.407 227.576C221.781 233.202 214.15 236.363 206.194 236.363L206.25 236.25Z" fill="#94A3B8"/>
<path d="M90 174.375C89.5027 174.375 89.0258 174.573 88.6742 174.924C88.3225 175.276 88.125 175.753 88.125 176.25C88.125 177.974 87.7855 179.68 87.1259 181.273C86.4663 182.865 85.4996 184.312 84.2808 185.531C83.062 186.75 81.6151 187.716 80.0227 188.376C78.4303 189.036 76.7236 189.375 75 189.375C73.2764 189.375 71.5697 189.036 69.9773 188.376C68.3849 187.716 66.938 186.75 65.7192 185.531C64.5005 184.312 63.5337 182.865 62.8741 181.273C62.2145 179.68 61.875 177.974 61.875 176.25C61.875 175.753 61.6775 175.276 61.3258 174.924C60.9742 174.573 60.4973 174.375 60 174.375C54.75 174.375 59.7375 193.125 75 193.125C90.2625 193.125 95.2688 174.375 90 174.375Z" fill="#94A3B8"/>
<path d="M180 174.375C179.503 174.375 179.026 174.573 178.674 174.924C178.323 175.276 178.125 175.753 178.125 176.25C178.125 179.731 176.742 183.069 174.281 185.531C171.819 187.992 168.481 189.375 165 189.375C161.519 189.375 158.181 187.992 155.719 185.531C153.258 183.069 151.875 179.731 151.875 176.25C151.875 175.753 151.677 175.276 151.326 174.924C150.974 174.573 150.497 174.375 150 174.375C144.75 174.375 149.737 193.125 165 193.125C180.263 193.125 185.269 174.375 180 174.375Z" fill="#94A3B8"/>
<path d="M131.25 215.625H108.75C108.253 215.625 107.776 215.823 107.424 216.174C107.073 216.526 106.875 217.003 106.875 217.5C106.875 217.997 107.073 218.474 107.424 218.826C107.776 219.177 108.253 219.375 108.75 219.375H131.25C131.747 219.375 132.224 219.177 132.576 218.826C132.927 218.474 133.125 217.997 133.125 217.5C133.125 217.003 132.927 216.526 132.576 216.174C132.224 215.823 131.747 215.625 131.25 215.625Z" fill="#94A3B8"/>
<path d="M140.625 67.5H159.375L139.087 94.4813C138.871 94.7622 138.739 95.0989 138.706 95.4521C138.673 95.8053 138.741 96.1606 138.902 96.4767C139.063 96.7928 139.31 97.0567 139.615 97.2379C139.92 97.419 140.27 97.5099 140.625 97.5H163.125C163.622 97.5 164.099 97.3025 164.451 96.9508C164.802 96.5992 165 96.1223 165 95.625C165 95.1277 164.802 94.6508 164.451 94.2992C164.099 93.9476 163.622 93.75 163.125 93.75H144.375C166.181 64.7438 165.581 66.2813 164.831 64.7625C164.081 63.2438 164.513 63.75 140.625 63.75C140.128 63.75 139.651 63.9475 139.299 64.2992C138.948 64.6508 138.75 65.1277 138.75 65.625C138.75 66.1223 138.948 66.5992 139.299 66.9508C139.651 67.3025 140.128 67.5 140.625 67.5Z" fill="#94A3B8"/>
<path d="M178.125 33.75H196.875L176.587 60.7313C176.371 61.0122 176.239 61.3489 176.206 61.7021C176.173 62.0553 176.241 62.4106 176.402 62.7267C176.563 63.0428 176.81 63.3067 177.115 63.4879C177.42 63.669 177.77 63.7599 178.125 63.75H200.625C201.122 63.75 201.599 63.5525 201.951 63.2008C202.302 62.8492 202.5 62.3723 202.5 61.875C202.5 61.3777 202.302 60.9008 201.951 60.5492C201.599 60.1975 201.122 60 200.625 60H181.875C203.606 31.0313 203.006 32.5688 202.256 31.05C201.506 29.5313 202.013 30 178.125 30C177.628 30 177.151 30.1975 176.799 30.5492C176.448 30.9008 176.25 31.3777 176.25 31.875C176.25 32.3723 176.448 32.8492 176.799 33.2008C177.151 33.5525 177.628 33.75 178.125 33.75Z" fill="#94A3B8"/>
<path d="M215.625 3.75001H234.375L214.087 30.7313C213.871 31.0122 213.739 31.3489 213.706 31.7021C213.673 32.0553 213.741 32.4106 213.902 32.7267C214.063 33.0428 214.31 33.3067 214.615 33.4879C214.92 33.669 215.27 33.7599 215.625 33.75H238.125C238.622 33.75 239.099 33.5525 239.451 33.2008C239.802 32.8492 240 32.3723 240 31.875C240 31.3777 239.802 30.9008 239.451 30.5492C239.099 30.1975 238.622 30 238.125 30H219.375C241.181 0.993755 240.581 2.53126 239.831 1.01251C239.081 -0.506244 239.513 6.33064e-06 215.625 6.33064e-06C215.128 6.33064e-06 214.651 0.19755 214.299 0.549181C213.948 0.900812 213.75 1.37773 213.75 1.87501C213.75 2.37229 213.948 2.8492 214.299 3.20083C214.651 3.55246 215.128 3.75001 215.625 3.75001Z" fill="#94A3B8"/>
</g>
<defs>
<clipPath id="clip0">
<rect width="240" height="240" fill="white"/>
</clipPath>
</defs>
</svg>
